<svg width="245" height="27" viewBox="0 0 245 27" xmlns="http://www.w3.org/2000/svg" xmlns:xlink="http://www.w3.org/1999/xlink"><title>0AB48BDD-A0AB-4CD7-B30B-EAC4736734F9</title><defs><path id="a" d="M0 27h244.95V.306H0z"/></defs><g fill="none" fill-rule="evenodd"><mask id="b" fill="#fff"><use xlink:href="#a"/></mask><path d="M173.7 14.682c-1.844-.832-3.632-1.752-3.497-3.666.12-1.703 1.349-2.97 3.366-2.825 1.737.122 2.83 1.293 3.05 1.614.636.747.74 1.586.846 2.383l.565.037c-.342-2.837.241-3.966.349-4.308 0 0-.285-.204-.344-.114-.333.504-.73.343-.73.343-1.462-.54-2.18-.721-3.23-.799-3.43-.243-5.763 1.738-5.962 4.525-.207 2.96 1.935 4.223 3.617 5.132 2.932 1.567 5.267 2.243 5.104 4.59-.092 1.265-1.053 2.82-3.196 2.666-1.814-.127-3.49-1.123-4.168-1.828-.83-.893-1.015-1.437-1.097-2.054l-.565-.04c.389 1.953.512 2.22.314 4.483l.441.083c.095-.21.28-.504.521-.486.242.017.957.284 1.11.344.438.16 1.387.486 2.598.574 3.757.266 6.11-2.016 6.288-4.542.24-3.398-2.463-4.799-5.38-6.112zm-71.08.053c-1.844-.828-3.633-1.749-3.499-3.664.12-1.7 1.35-2.97 3.368-2.827 1.737.124 2.829 1.298 3.051 1.62.636.744.739 1.583.844 2.376l.566.043c-.343-2.839.241-3.967.347-4.308 0 0-.284-.21-.341-.12-.336.506-.73.347-.73.347-1.464-.542-2.182-.72-3.232-.796-3.43-.245-5.761 1.733-5.96 4.52-.21 2.963 1.935 4.224 3.613 5.131 2.933 1.567 5.273 2.243 5.104 4.595-.089 1.263-1.054 2.817-3.192 2.664-1.816-.132-3.492-1.126-4.171-1.827-.828-.896-1.017-1.437-1.093-2.053l-.568-.044c.387 1.953.514 2.224.311 4.485l.446.084c.092-.215.277-.504.519-.489.243.019.953.287 1.111.344a9.346 9.346 0 0 0 2.597.577c3.754.267 6.108-2.016 6.289-4.544.238-3.398-2.463-4.8-5.38-6.114zm38.95-6.76l.003.665c.763-.001.84.039 1.227.43.396.404.24 5.287.252 10.803.006 2.646-.737 4.22-3.713 4.223-4.638.01-4.067-2.51-4.08-9.322-.01-4.914-.524-5.925 1.958-6.161l-.004-.668c-.84-.038-2.138.323-3.454.317-1.03-.003-3.42-.228-3.727-.186l.038.627c1.032-.002 1.268.123 1.705.497.11.094.416.846.418 1.781.007 2.975.058 9.189.06 9.807.006 3.45 2.237 4.774 6.438 4.766 6.191-.013 6.576-3.31 6.567-8.57l.023-6.468c.037-1.215-.002-1.805 1.946-1.923l.036-.629c-.61.037-.954.077-2.865.083-1.565.002-2.214-.072-2.827-.072zm-19.71 2.799c-2.623-1.179-5.272-2.675-5.13-5.407.158-2.956 2.258-4.265 5.131-4.06 2.468.176 3.836 2.068 4.156 2.524.903 1.063 1.272 2.222 1.422 3.347l.583.1c-.488-4.038.343-5.646.495-6.136 0 0-.577-.253-.649-.13-.426.723-.734.521-.876.458C125.21.722 123.886.442 122.39.335c-4.88-.346-8.158 2.476-8.48 6.437-.32 3.948 3.321 5.347 5.748 6.567 4.25 2.14 6.962 3.146 6.657 7.282-.132 1.8-1.49 3.893-4.545 3.794a8.52 8.52 0 0 1-5.934-2.606c-1.183-1.27-1.447-2.043-1.557-2.922l-.631-.06c.556 2.78.623 3.166.337 6.385l.562.12c.135-.3.394-.718.739-.694.347.023 1.357.408 1.584.49.62.227 1.971.698 3.696.819 5.343.381 8.698-2.87 8.951-6.466.343-4.841-3.507-6.836-7.658-8.707zm44.792 15.139c-.855-.184-1.591-.567-1.877-2.075-.603-3.18-.315-12.56.058-14.288.16-.727.507-1.023 1.611-1.187l-.027-.435s-1.06.23-2.19.08c-.854-.12-2.743-.408-3.401-.148-.136.055-.219.125-.262.203.138.078.263.182.364.309l.012-.004c.736-.316 1.868.125 1.855 5.04 0 0 .124 5.346.018 6.99-2.786-4.36-5.538-6.882-9.225-10.283-.367-.34-1.077-1.023-1.08-1.903h-.006l.009-.064a6.188 6.188 0 0 1-.516-.047c-.848-.116-2.733-.404-3.396-.143l-.1.056c.14.111.26.248.349.41.791-.196 2.308.6 2.317 5.456l-.066 6.287c.008 3.243-.117 3.595-1.299 4.225-.26.138-.412.243-.577.332l-.057.038c.092.133.148.28.177.444l.07-.017c.09-.025 1.167-.399 2.45-.456 1.987-.084 3.313.331 3.411.333.054-.217.054-.27.054-.485-2.911-.56-2.73-2.306-2.855-5.438l-.025-5.391c.043.024 4.399 2.858 8.85 9.813.625.977 1.683 2.336 2.844 2.647.96.314 1.949.327 2.567.226-.01-.11-.099-.329-.057-.525zm73.074-5.172c-.67 1.963-.984 2.535-2.561 2.31-1.408-.204-1.72-.238-3.507-.194-.54.01-.366-.674-.376-5.577-.001-.703 1.878-.807 3.52-.626.84.091 1.659.482 1.813 1.229l.322-.157c-.151-.982-.384-1.565-.156-3.11l-.361-.256c-.008.564-.333 1.158-.934 1.208-1.91.153-4.22.158-4.22-.377-.002-.535-.048-5.442 0-5.97.049-.525 1.734-.609 2.444-.616 3.252-.033 3.127 1.745 3.05 2.917l.564.058c.434-1.705-.01-3.98-.01-3.98s-2.382.305-5.812.312c-1.261.003-4.32-.112-5.422-.153v.584c1.251.095 2.14.363 2.21 2.072.036.889.262 4.365-.037 11.551-.05 1.252-.654 1.915-2.032 2.233 0 0 .135.18.302.315.192.154.451.188.451.188 2.487-.628 3.315-.885 6.702-.6 1.765.15 2.93.555 4.025.913.577.189-.7-.517.537-4.231l-.512-.043zm3.643-12.977a.97.97 0 0 1-.342.046h-.325v-.74h.307c.2 0 .344.025.435.076.09.05.136.15.136.299 0 .157-.07.263-.211.319zm.532.97a2.688 2.688 0 0 1-.005-.152v-.15a.563.563 0 0 0-.11-.315.496.496 0 0 0-.35-.2.772.772 0 0 0 .294-.099c.133-.086.2-.22.2-.403 0-.257-.106-.43-.318-.517-.117-.05-.303-.074-.556-.074h-.713v2.042h.359v-.803h.283c.191 0 .324.022.4.066.128.075.192.23.192.467v.161l.008.066a.255.255 0 0 0 .005.023l.005.02h.336l-.012-.026a.341.341 0 0 1-.018-.106zm-45.752-.215l.027-.498c-.996-.137-3.337.422-7.396-.026l-.023.442c2.337.267 2.373.512 2.476 4.319 0 0 .066 3.009.068 3.46-1.576-1.282-5.43-2.01-8.006.054l.019-3.06c.004-.876.005-2.334.117-3.076.135-.898.72-1.519 2.23-1.726l-.034-.537s-3.23.605-6.793.026l-.047.52c1.38.169 1.764.586 1.793 1.756.024 1.056.108 2.226.096 4.027l.012 4.936c.02 3.977-.027 4.739-2.12 5.06v.496c2.658-.48 5.305-.406 6.892-.02l.004-.56c-1.877-.176-2.205-1.552-2.2-2.617 0 0-.112-1.256.015-2.317.396-3.33 6.047-3.657 7.974-1.838l-.017 2.361c-.017 2.762-.022 3.638-.693 3.97a4.92 4.92 0 0 1-1.616.531v.477c.834-.121 3.536-.59 7.25.117l-.025-.52c-1.425-.3-1.848-.538-2.05-1.252-.246-.882-.23-4.1-.224-5.02l-.021-3.306c-.15-5.344.02-6.303 2.292-6.179zm5.896-.644c-.805.118-2.53.061-4.084.01.185.21.174.479.174.479 1.495.15 2.129.84 2.067 2.066-.047.898.524 11.424-.27 12.735-.446.738-1.623.976-2.169 1.021l.025.534c.338 0 3.966-.572 7.47.027l-.016-.518c-1.673.002-2.083-.87-2.173-1.458-.094-.603-.175-3.38-.176-4.384-.013-6.744.026-8.461.4-9.131.499-.842 1.385-1.08 2.002-.944l.274-.445s-.938-.366-3.524.008zm22.598 17.786c-.853-.188-1.591-.567-1.878-2.074-.6-3.182-.316-12.566.058-14.291.161-.729.508-1.024 1.613-1.19l-.027-.429s-1.06.228-2.19.074c-.854-.114-2.744-.404-3.4-.145a.49.49 0 0 0-.264.202c.14.082.264.185.362.309l.013-.003c.738-.317 1.867.126 1.857 5.04 0 0 .122 5.346.018 6.993-2.786-4.36-5.54-6.882-9.227-10.284-.368-.34-1.079-1.024-1.08-1.903h-.004l.007-.066a6.421 6.421 0 0 1-.513-.045c-.85-.118-2.737-.406-3.397-.146l-.104.058c.145.11.26.248.35.41.793-.196 2.308.6 2.32 5.457l-.067 6.286c.006 3.244-.117 3.593-1.301 4.223-.261.143-.411.244-.577.335l-.056.04c.092.132.147.278.174.442l.075-.014c.09-.029 1.166-.407 2.449-.458 1.988-.084 3.313.33 3.41.33.054-.215.054-.27.054-.486-2.91-.56-2.728-2.303-2.853-5.438l-.028-5.385c.047.018 4.398 2.856 8.852 9.811.624.978 1.682 2.334 2.846 2.646.959.313 1.945.329 2.569.227-.015-.113-.105-.33-.06-.526zM34.496 7.765c.002.97-.15 1.3-1.063 2.919l.312.475c.214-.63 1.556-2.268 6.231-1.377.542 4.163.32 11.615.133 12.748-.106.635-.447 1.616-1.491 1.89a.836.836 0 0 0 .55.498c2.688-.941 5.724.121 5.796.115-.151-.385.007-.657-.017-.659-.813-.116-1.324-.574-1.59-1.157-.455-1.066-.403-4.077-.496-7.623-.093-3.547.157-5.795.157-5.795 3.349-.901 4.925.71 5.142 1.33l.382-.43c-.92-1.616-1.07-1.961-1.071-2.935-5.717 1.083-12.975.001-12.975.001zm-8.11 10.714s1.842-4.713 2.392-6.152l2.377 5.86c-.216-.61-2.92-1.583-4.768.292zm6.23-3.625c-1.161-2.828-2.593-6.871-2.692-6.973-.287.226-.613.472-.985.521-2.717 7.877-3.91 10.814-4.577 12.571-.745 1.943-1.696 3.127-3.003 3.256l-.04.592c.317-.043 3.065-.641 5.322.083l-.02-.584c-1.23-.25-1.744-.51-1.745-1.105-.001-.712.594-2.16 1.225-3.51 2.176-2.166 5.18-.95 5.595.324 0 0 1.227 2.409 1.966 3.82 1.988 3.79 5.82 3.082 6.492 3.124l-.078-.468c-3.121-.119-4.821-5.236-7.46-11.65zm211.606-5.862a1.53 1.53 0 0 1-1.13.471 1.53 1.53 0 0 1-1.131-.47 1.565 1.565 0 0 1-.463-1.14c0-.443.155-.82.465-1.133a1.533 1.533 0 0 1 1.129-.47c.441 0 .819.156 1.13.47.31.313.466.69.466 1.132 0 .446-.155.826-.466 1.14zm.185-2.454a1.797 1.797 0 0 0-1.315-.542c-.511 0-.947.18-1.308.542a1.79 1.79 0 0 0-.544 1.312c0 .517.18.957.539 1.32.36.364.798.547 1.313.547.514 0 .952-.183 1.315-.547.363-.365.544-.805.544-1.32 0-.513-.181-.95-.544-1.312zM22.892 2.51s-1.393.3-2.876.096c-1.112-.152-3.284-.535-4.15-.189-.18.07-.286.166-.34.262.182.108.342.244.476.406l.015-.002c.969-.42 2.73-.3 2.743 6.452 0 0 .013 6.418-.123 8.58C11.485 9.294 4.884 5.065 4.954 2.883L4.95 2.88l.009-.086a6.805 6.805 0 0 1-.673-.059c-1.114-.156-3.285-.533-4.15-.193-.055.024-.094.05-.136.076.19.146.345.327.464.535 1.038-.252 3.027.792 3.04 7.162v.045l-.088 8.204c.008 4.25-.152 4.709-1.704 5.54-.344.182-.542.317-.757.436a.567.567 0 0 0-.168.13c.112.153.194.327.243.517a.716.716 0 0 0 .178-.034c.113-.038 1.22-.53 2.902-.6 2.605-.109 4.346.431 4.473.431.07-.282.07-.35.069-.636-3.814-.735-3.577-3.021-3.742-7.131l-.066-8.955c.142.069 14.91 14.038 14.916 17.093l.305.016.403.022c-.149-1.879-.188-5.38-.191-7.357-.007-2.975.046-11.137.537-13.4.209-.955.667-1.347 2.112-1.563l-.034-.562zm37.16 5.323V8.5c.767-.002.847.034 1.229.423.397.411.244 5.293.255 10.811.004 2.645-.738 4.22-3.716 4.227-4.637.008-4.065-2.518-4.078-9.329-.01-4.913-.527-5.924 1.958-6.165l-.001-.664c-.842-.039-2.141.32-3.457.318-1.032-.007-3.42-.226-3.728-.188l.041.625c2.093-.004 2.118 1.224 2.12 2.282.006 2.969.06 9.185.06 9.804.007 3.45 2.237 4.776 6.44 4.769 6.193-.014 6.577-3.31 6.567-8.573l.022-6.467c.038-1.214-.004-1.806 1.945-1.924l.036-.625c-.611.038-.955.075-2.864.08-1.565.003-2.216-.07-2.829-.07zM93.996 20.93c-.669 1.962-.986 2.534-2.564 2.31-1.404-.205-1.716-.238-3.502-.197-.54.013-.37-.673-.38-5.577 0-.702 1.882-.805 3.52-.626.843.093 1.661.484 1.814 1.232l.325-.156c-.153-.986-.388-1.566-.156-3.114l-.365-.254c-.005.563-.33 1.155-.932 1.206-1.909.155-4.222.158-4.224-.375 0-.534-.045-5.44.002-5.97.049-.526 1.738-.608 2.447-.616 3.25-.035 3.126 1.745 3.048 2.914l.563.06c.434-1.704-.009-3.98-.009-3.98s-2.378.31-5.81.319c-1.258 0-4.32-.12-5.426-.159l.002.584c1.254.09 2.14.363 2.21 2.069.038.892.13 4.364-.034 11.555-.022.937-.133 1.656-1.182 1.96 0 0 .134.177.306.32.19.146.447.183.447.183 2.045-.514 2.91-.572 5.848-.33 1.765.146 2.934.556 4.03.915.57.188-.702-.518.532-4.232l-.51-.04zm2.279-15.16l-.066-.08-.1.025c-.388.097-.73.444-.87.876l-.035.107.086.071c.376.307.589.759.59 1.23 0 .235-.053.475-.166.701l-.04.088.22.324s.871-.664.885-1.743c.008-.67-.165-1.192-.504-1.6zm-24.087 9.832l.03-3.97c.034-2.813-.207-3.099 1.43-3.101 2.774-.007 3.48 2.304 3.482 3.834.006 3.31-2.678 3.316-3.263 3.316-.47.002-1.21.002-1.68-.08zm8.399 7.542c-1.147-2.003-3.337-6.38-4.414-6.554 2.564-.352 3.548-2.122 3.543-4.44-.005-2.556-1.613-5.28-5.802-4.562-1.511.26-2.625.381-3.385.381a71.03 71.03 0 0 1-3.36-.133l-.06.548c1.567.064 2.21.747 2.214 2.247l.015 7.21c.002 1.116.047 4.587-.224 5.205-.35.705-1.756 1.037-1.99 1.08l.117.5c.508-.048 3.017-.964 7.385.067l-.039-.624c-.78-.246-1.955-.617-2.15-.985-.315-.663-.278-3.057-.282-4.134l-.004-2.4c.629 0 1.044-.04 1.542.31.883.62 3.258 6.403 6.145 8.621 1.385 1.064 3.264 1.55 5.399 1.035l.04-.623c-.92.047-2.869.424-4.69-2.75z" fill="#72B431" mask="url(#b)"/></g></svg>